{
.appVersion = "3306";
.formatVersion = 3;
DisplayStrings = (
"ABCDEFGHIJKLMNOPQR/_baston.con.dos.puntas STUVWXYZ",
"-",
"-–—_",
"¨",
"UÜ¨̈",
"ÄËıÏOÖÜ"
);
date = "2024-03-28 09:29:43 +0000";
familyName = "abc-natur-berlin-pankow";
fontMaster = (
{
id = m01;
metricValues = (
{
over = 16;
pos = 800;
},
{
over = 16;
pos = 700;
},
{
over = 16;
pos = 500;
},
{
over = -16;
},
{
over = -16;
pos = -200;
},
{
}
);
name = Regular;
}
);
glyphs = (
{
glyphname = B;
lastChange = "2024-02-05 15:14:17 +0000";
layers = (
{
background = {
shapes = (
{
closed = 0;
nodes = (
(825,-133,l),
(790,-210,o),
(706,-269,o),
(719,-363,cs),
(721,-378,o),
(725,-374,o),
(725,-362,cs),
(725,-319,o),
(730,-278,o),
(787,-216,cs),
(844,-154,o),
(765,-386,o),
(774,-410,c),
(837,-155,l),
(839,-146,o),
(853,-138,o),
(843,-171,cs),
(833,-204,o),
(653,-315,o),
(653,-336,cs),
(653,-357,o),
(680,-310,o),
(698,-299,c),
(857,-182,l),
(864,-177,o),
(868,-180,o),
(855,-198,cs),
(842,-216,o),
(827,-273,o),
(834,-345,cs),
(841,-417,o),
(849,-424,o),
(856,-422,cs),
(863,-420,o),
(821,-332,o),
(843,-256,cs),
(865,-180,o),
(874,-172,o),
(884,-175,cs),
(894,-178,o),
(915,-231,o),
(913,-283,cs),
(911,-335,o),
(941,-436,o),
(990,-448,cs),
(1039,-460,o),
(996,-441,o),
(982,-433,cs),
(968,-425,o),
(928,-397,o),
(920,-306,cs),
(912,-215,o),
(911,-197,o),
(919,-201,cs),
(927,-205,o),
(942,-269,o),
(940,-301,cs),
(938,-333,o),
(939,-490,o),
(954,-487,cs),
(969,-484,o),
(947,-400,o),
(947,-351,cs),
(947,-302,o),
(940,-224,o),
(933,-208,cs),
(926,-192,o),
(944,-206,o),
(952,-226,cs),
(960,-246,o),
(990,-312,o),
(1018,-380,cs),
(1046,-448,o),
(1054,-460,o),
(1062,-457,cs),
(1070,-454,o),
(1024,-371,o),
(1002,-323,cs),
(980,-275,o),
(944,-159,o),
(937,-149,cs),
(930,-139,o),
(936,-135,o),
(949,-147,cs),
(962,-159,o),
(1071,-338,o),
(1086,-378,cs),
(1101,-418,o),
(1120,-434,o),
(1127,-430,cs),
(1134,-426,o),
(1038,-273,o),
(1021,-252,cs),
(1004,-231,o),
(997,-194,o),
(1009,-189,cs),
(1021,-184,o),
(1155,-412,o),
(1163,-403,cs),
(1171,-394,o),
(1021,-204,o),
(1029,-202,cs),
(1037,-200,o),
(1170,-394,o),
(1179,-389,cs),
(1188,-384,o),
(1035,-218,o),
(1046,-209,cs),
(1057,-200,o),
(1218,-382,o),
(1226,-366,cs),
(1234,-350,o),
(1039,-197,o),
(1048,-187,cs),
(1057,-177,o),
(1222,-340,o),
(1229,-331,cs),
(1236,-322,o),
(1066,-210,o),
(1083,-188,cs),
(1100,-166,o),
(1263,-331,o),
(1270,-315,cs),
(1277,-299,o),
(1103,-191,o),
(1104,-182,cs),
(1107,-153,o),
(1297,-293,o),
(1310,-264,cs),
(1323,-235,o),
(1088,-192,o),
(1116,-155,cs),
(1144,-118,o),
(1285,-222,o),
(1296,-209,cs),
(1307,-196,o),
(1152,-162,o),
(1154,-126,cs),
(1156,-90,o),
(1346,-227,o),
(1356,-194,cs),
(1366,-161,o),
(1180,-151,o),
(1191,-105,cs),
(1202,-59,o),
(1310,-148,o),
(1313,-139,cs),
(1316,-130,o),
(1207,-89,o),
(1217,-69,cs),
(1227,-49,o),
(1390,-134,o),
(1393,-105,cs),
(1396,-76,o),
(1215,-74,o),
(1214,-53,cs),
(1213,-32,o),
(1378,-74,o),
(1380,-56,cs),
(1382,-38,o),
(1205,-63,o),
(1218,-15,c),
(1245,120,o),
(1385,-65,o),
(1391,-12,cs),
(1397,41,o),
(1275,32,o),
(1273,41,cs),
(1267,66,o),
(1372,17,o),
(1372,42,cs),
(1372,49,o),
(1260,56,o),
(1262,69,c),
(1262,82,o),
(1360,43,o),
(1371,65,cs),
(1382,87,o),
(1273,63,o),
(1275,80,cs),
(1277,97,o),
(1426,115,o),
(1420,148,cs),
(1414,181,o),
(1291,66,o),
(1284,100,cs),
(1277,134,o),
(1438,49,o),
(1447,67,cs),
(1456,85,o),
(1299,100,o),
(1289,118,cs),
(1269,154,o),
(1425,177,o),
(1428,192,cs),
(1431,207,o),
(1301,140,o),
(1301,156,cs)
);
}
);
};
layerId = m01;
shapes = (
{
alignment = -1;
pos = (69,483);
ref = _abrojo;
},
{
alignment = -1;
pos = (187,-270);
ref = _abrojo;
},
{
alignment = -1;
angle = -21.68495;
pos = (-50,845);
ref = _diagonal.con.hoja;
scale = (1,-1);
}
);
width = 1102;
}
);
unicode = 66;
},
{
glyphname = V;
lastChange = "2024-02-05 15:16:28 +0000";
layers = (
{
background = {
shapes = (
{
closed = 1;
nodes = (
(267,543,o),
(243,615,o),
(224,683,cs),
(210,732,o),
(320,748,o),
(296,846,cs),
(272,943,o),
(226,1004,o),
(189,1097,c),
(173,1063,l),
(158,1107,l),
(151,1052,l),
(138,1115,l),
(119,1004,l),
(101,1057,l),
(87,955,l),
(87,989,o),
(79,1015,o),
(61,1038,c),
(93,925,o),
(-36,741,o),
(158,698,cs),
(185,692,o),
(208,679,o),
(224,619,cs),
(287,387,o),
(372,221,o),
(447,106,cs),
(449,104,o),
(451,93,o),
(453,80,c),
(438,83,o),
(392,114,o),
(391,112,c),
(403,80,l),
(423,76,o),
(447,67,o),
(461,52,cs),
(616,-108,o),
(620,-123,o),
(782,-333,c),
(811,-305,l),
(784,-265,ls),
(767,-239,o),
(771,-205,o),
(784,-169,cs),
(1042,561,l),
(1078,593,o),
(1128,573,o),
(1150,656,c),
(1265,926,l),
(1217,922,l),
(1219,962,l),
(1187,970,l),
(1274,1026,l),
(1267,1049,l),
(1172,976,l),
(1225,1065,l),
(1189,1075,l),
(1163,986,l),
(1156,1057,l),
(1139,1049,l),
(1156,978,l),
(1115,1007,l),
(1112,989,l),
(1087,988,l),
(1092,967,l),
(1077,948,l),
(1071,909,l),
(1049,907,l),
(1018,975,l),
(1028,901,l),
(1003,947,l),
(1003,903,l),
(982,921,l),
(972,857,o),
(959,813,o),
(952,729,c),
(991,586,l),
(1009,545,l),
(754,-186,ls),
(746,-209,o),
(738,-212,o),
(722,-195,cs),
(646,-110,o),
(533,7,o),
(444,154,c),
(464,170,o),
(521,204,o),
(547,122,c),
(558,127,l),
(545,154,o),
(539,215,o),
(442,166,c),
(388,257,o),
(337,356,o),
(296,458,c),
(309,467,o),
(325,483,o),
(302,516,c),
(296,507,l),
(307,491,o),
(316,477,o),
(295,471,c)
);
}
);
};
layerId = m01;
shapes = (
{
alignment = -1;
angle = -21.16917;
pos = (783,-274);
ref = _adorno;
scale = (-1,1);
},
{
alignment = -1;
pos = (22,-100);
ref = _bifuracion.grande;
}
);
width = 1255;
}
);
unicode = 86;
},
{
export = 0;
glyphname = _abrojo;
lastChange = "2024-01-29 20:23:13 +0000";
layers = (
{
layerId = m01;
shapes = (
{
closed = 1;
nodes = (
(531,-151,o),
(390,151,o),
(399,162,cs),
(408,173,o),
(502,-85,o),
(512,-81,cs),
(522,-77,o),
(463,28,o),
(471,37,cs),
(482,50,o),
(567,-139,o),
(583,-130,cs),
(590,-126,o),
(494,27,o),
(477,48,cs),
(460,69,o),
(453,106,o),
(465,111,cs),
(477,116,o),
(611,-112,o),
(619,-103,cs),
(627,-94,o),
(477,96,o),
(485,98,cs),
(493,100,o),
(626,-94,o),
(635,-89,cs),
(644,-84,o),
(491,82,o),
(502,91,cs),
(513,100,o),
(674,-82,o),
(682,-66,cs),
(690,-50,o),
(495,103,o),
(504,113,cs),
(513,123,o),
(678,-40,o),
(685,-31,cs),
(692,-22,o),
(522,90,o),
(539,112,cs),
(556,134,o),
(719,-31,o),
(726,-15,cs),
(733,1,o),
(559,109,o),
(560,118,cs),
(563,147,o),
(753,7,o),
(766,36,cs),
(779,65,o),
(544,108,o),
(572,145,cs),
(600,182,o),
(741,78,o),
(752,91,cs),
(763,104,o),
(608,138,o),
(610,174,cs),
(612,210,o),
(802,73,o),
(812,106,cs),
(822,139,o),
(636,149,o),
(647,195,cs),
(658,241,o),
(766,152,o),
(769,161,cs),
(772,170,o),
(663,211,o),
(673,231,cs),
(683,251,o),
(846,166,o),
(849,195,cs),
(852,224,o),
(671,226,o),
(670,247,cs),
(669,268,o),
(834,226,o),
(836,244,cs),
(838,262,o),
(661,237,o),
(674,285,c),
(701,420,o),
(841,235,o),
(847,288,cs),
(853,341,o),
(731,332,o),
(729,341,cs),
(723,366,o),
(828,317,o),
(828,342,cs),
(828,349,o),
(716,356,o),
(718,369,c),
(718,382,o),
(816,343,o),
(827,365,cs),
(838,387,o),
(729,363,o),
(731,380,cs),
(733,397,o),
(882,415,o),
(876,448,cs),
(870,481,o),
(747,366,o),
(740,400,cs),
(733,434,o),
(894,349,o),
(903,367,cs),
(912,385,o),
(755,400,o),
(745,418,cs),
(725,454,o),
(881,477,o),
(884,492,cs),
(887,507,o),
(716,423,o),
(716,439,cs),
(716,456,o),
(801,465,o),
(798,479,cs),
(795,493,o),
(713,435,o),
(710,451,cs),
(707,467,o),
(790,483,o),
(792,495,cs),
(794,507,o),
(676,433,o),
(666,462,cs),
(656,491,o),
(857,549,o),
(853,566,cs),
(849,583,o),
(638,450,o),
(631,480,cs),
(624,510,o),
(811,559,o),
(805,577,cs),
(799,595,o),
(616,475,o),
(608,495,cs),
(600,515,o),
(768,564,o),
(766,575,cs),
(764,586,o),
(610,500,o),
(608,514,cs),
(606,528,o),
(748,572,o),
(746,583,cs),
(744,594,o),
(639,532,o),
(641,540,cs),
(643,548,o),
(791,668,o),
(773,681,cs),
(755,694,o),
(622,495,o),
(602,536,cs),
(582,577,o),
(698,606,o),
(694,616,cs),
(685,640,o),
(570,532,o),
(557,543,cs),
(544,554,o),
(752,671,o),
(743,683,cs),
(734,695,o),
(560,541,o),
(551,563,cs),
(542,585,o),
(699,710,o),
(687,719,cs),
(675,728,o),
(522,533,o),
(513,549,cs),
(504,565,o),
(673,722,o),
(665,732,cs),
(657,742,o),
(531,571,o),
(519,586,c),
(512,600,o),
(670,645,o),
(670,662,cs),
(670,679,o),
(528,579,o),
(521,625,cs),
(514,671,o),
(609,733,o),
(602,742,cs),
(595,751,o),
(530,651,o),
(512,661,cs),
(496,669,o),
(580,758,o),
(567,771,cs),
(554,784,o),
(464,552,o),
(443,566,cs),
(422,580,o),
(521,699,o),
(521,711,cs),
(521,723,o),
(454,606,o),
(445,608,cs),
(436,610,o),
(552,780,o),
(536,790,cs),
(520,800,o),
(469,643,o),
(455,646,cs),
(441,649,o),
(501,814,o),
(487,818,cs),
(473,822,o),
(444,585,o),
(429,588,cs),
(404,593,o),
(480,808,o),
(459,808,cs),
(438,808,o),
(434,578,o),
(397,588,cs),
(360,598,o),
(442,779,o),
(423,781,cs),
(404,783,o),
(380,564,o),
(367,564,cs),
(354,564,o),
(401,817,o),
(374,824,cs),
(347,831,o),
(385,669,o),
(366,667,cs),
(347,665,o),
(367,723,o),
(357,725,cs),
(347,727,o),
(373,558,o),
(352,555,cs),
(331,552,o),
(349,605,o),
(335,605,cs),
(321,605,o),
(340,568,o),
(332,569,cs),
(298,572,o),
(368,774,o),
(338,774,cs),
(308,774,o),
(329,559,o),
(312,556,cs),
(295,553,o),
(309,684,o),
(279,686,cs),
(249,688,o),
(331,527,o),
(300,524,cs),
(269,521,o),
(217,654,o),
(203,643,cs),
(189,632,o),
(305,509,o),
(298,501,c),
(291,495,o),
(123,665,o),
(109,652,cs),
(95,639,o),
(269,534,o),
(257,526,cs),
(245,518,o),
(176,709,o),
(153,706,cs),
(130,703,o),
(288,494,o),
(267,483,cs),
(246,472,o),
(96,641,o),
(84,629,cs),
(72,617,o),
(230,507,o),
(228,497,cs),
(226,487,o),
(44,586,o),
(37,569,cs),
(30,552,o),
(243,495,o),
(239,483,cs),
(235,471,o),
(47,529,o),
(40,513,cs),
(33,497,o),
(251,487,o),
(242,464,cs),
(233,441,o),
(120,488,o),
(101,480,cs),
(82,472,o),
(253,464,o),
(239,435,cs),
(225,406,o),
(34,492,o),
(27,472,cs),
(20,452,o),
(251,426,o),
(253,417,cs),
(263,373,o),
(15,417,o),
(12,400,cs),
(9,383,o),
(252,408,o),
(251,376,cs),
(250,344,o),
(11,385,o),
(0,361,cs),
(-11,337,o),
(229,391,o),
(229,340,cs),
(229,289,o),
(-4,257,o),
(12,232,cs),
(28,207,o),
(219,337,o),
(217,298,cs),
(215,259,o),
(35,361,o),
(26,340,cs),
(17,319,o),
(270,279,o),
(266,260,cs),
(262,241,o),
(45,315,o),
(41,298,cs),
(37,281,o),
(184,281,o),
(183,262,cs),
(182,243,o),
(3,216,o),
(1,189,cs),
(-1,162,o),
(201,280,o),
(204,250,cs),
(207,220,o),
(123,235,o),
(122,224,cs),
(121,213,o),
(252,225,o),
(243,213,cs),
(237,205,o),
(14,178,o),
(14,171,cs),
(14,145,o),
(255,220,o),
(255,209,cs),
(255,198,o),
(127,176,o),
(127,156,cs),
(127,136,o),
(268,221,o),
(272,205,cs),
(276,189,o),
(151,126,o),
(164,113,cs),
(177,100,o),
(278,216,o),
(289,197,cs),
(300,178,o),
(148,-47,o),
(180,-67,cs),
(212,-87,o),
(282,216,o),
(309,203,cs),
(336,190,o),
(124,89,o),
(126,69,cs),
(128,49,o),
(319,209,o),
(324,188,cs),
(329,167,o),
(226,-13,o),
(243,-19,cs),
(260,-25,o),
(307,153,o),
(316,150,cs),
(325,147,o),
(291,-133,o),
(309,-128,cs),
(327,-123,o),
(311,140,o),
(333,136,cs),
(355,132,o),
(432,-167,o),
(467,-145,cs),
(502,-123,o),
(325,125,o),
(349,141,cs),
(373,157,o),
(332,-46,o),
(352,-53,cs),
(372,-60,o),
(340,135,o),
(377,146,cs),
(414,157,o),
(497,-171,o),
(514,-161,cs)
);
}
);
width = 903;
}
);
},
{
export = 0;
glyphname = _adorno;
lastChange = "2024-02-05 14:25:02 +0000";
layers = (
{
layerId = m01;
shapes = (
{
closed = 1;
nodes = (
(54,368,o),
(83,390,o),
(112,412,c),
(128,452,o),
(162,467,o),
(194,488,c),
(220,459,o),
(246,488,o),
(269,538,c),
(256,542,l),
(263,555,l),
(248,553,l),
(256,573,l),
(242,567,l),
(242,589,l),
(228,575,l),
(228,602,l),
(174,572,o),
(132,538,o),
(171,484,c),
(128,456,o),
(100,415,o),
(54,385,c),
(54,330,l)
);
}
);
width = 600;
}
);
},
{
export = 0;
glyphname = _bifuracion;
lastChange = "2024-02-05 15:03:25 +0000";
layers = (
{
layerId = m01;
shapes = (
{
closed = 1;
nodes = (
(439,-32,l),
(361,137,o),
(228,428,o),
(231,500,c),
(305,698,o),
(351,870,o),
(373,973,c),
(326,969,l),
(298,778,o),
(250,563,o),
(186,425,cs),
(124,291,o),
(62,156,o),
(0,22,c),
(27,18,l),
(43,57,o),
(157,378,o),
(209,431,c),
(231,431,l),
(271,349,o),
(311,206,o),
(417,-43,c)
);
}
);
width = 439;
}
);
},
{
export = 0;
glyphname = _baston.alcaucil;
lastChange = "2024-02-05 14:59:47 +0000";
layers = (
{
layerId = m01;
shapes = (
{
closed = 1;
nodes = (
(168,-79,o),
(281,90,o),
(109,163,c),
(103,542,o),
(94,910,o),
(99,1299,c),
(56,1282,l),
(104,689,o),
(92,170,o),
(80,110,c),
(41,110,o),
(-17,57,o),
(1,-26,cs),
(14,-84,o),
(43,-137,o),
(64,-193,c)
);
}
);
width = 179;
}
);
},
{
export = 0;
glyphname = _baston.corto;
lastChange = "2024-02-05 14:16:54 +0000";
layers = (
{
layerId = m01;
shapes = (
{
closed = 1;
nodes = (
(76,-137,l),
(64,-107,l),
(62,-84,o),
(65,-65,o),
(71,-44,cs),
(76,-26,o),
(59,-26,o),
(48,-31,c),
(47,132,o),
(46,295,o),
(62,469,c),
(63,526,o),
(66,581,o),
(89,633,c),
(232,654,o),
(133,810,o),
(155,899,c),
(148,885,l),
(153,917,l),
(140,883,l),
(145,916,l),
(134,880,l),
(133,918,l),
(129,886,l),
(127,909,l),
(123,878,l),
(123,914,l),
(117,887,l),
(117,907,l),
(110,877,l),
(110,904,l),
(103,878,l),
(103,905,l),
(98,877,l),
(97,897,l),
(95,877,l),
(92,893,l),
(61,801,o),
(-75,730,o),
(57,638,c),
(46,603,l),
(45,442,o),
(41,282,o),
(31,121,c),
(37,51,o),
(34,-12,o),
(33,-75,c),
(61,-149,l)
);
},
{
ref = _adorno;
}
);
width = 194;
}
);
},
{
export = 0;
glyphname = _bifuracion.grande;
lastChange = "2024-02-05 14:37:04 +0000";
layers = (
{
layerId = m01;
shapes = (
{
closed = 1;
nodes = (
(880,280,o),
(845,172,o),
(791,76,c),
(759,-13,o),
(745,-91,o),
(694,-191,cs),
(686,-207,o),
(680,-209,o),
(667,-195,cs),
(591,-110,o),
(478,7,o),
(389,154,c),
(409,170,o),
(466,204,o),
(492,122,c),
(503,127,l),
(490,154,o),
(484,215,o),
(387,166,c),
(333,257,o),
(282,356,o),
(241,458,c),
(254,467,o),
(270,483,o),
(247,516,c),
(241,507,l),
(252,491,o),
(261,477,o),
(240,471,c),
(212,543,o),
(188,615,o),
(169,683,c),
(224,697,o),
(265,748,o),
(241,846,cs),
(217,943,o),
(171,1004,o),
(134,1097,c),
(118,1063,l),
(103,1107,l),
(96,1052,l),
(83,1115,l),
(64,1004,l),
(46,1057,l),
(32,955,l),
(32,989,o),
(24,1015,o),
(6,1038,c),
(38,925,o),
(-91,741,o),
(150,666,c),
(196,558,o),
(326,207,o),
(392,106,cs),
(394,104,o),
(396,93,o),
(398,80,c),
(383,83,o),
(337,114,o),
(336,112,c),
(348,80,l),
(368,76,o),
(392,67,o),
(406,52,cs),
(554,-101,o),
(573,-115,o),
(706,-306,cs),
(736,-349,o),
(741,-354,o),
(776,-329,c),
(762,-312,o),
(720,-277,o),
(720,-242,cs),
(720,-235,o),
(732,-225,o),
(741,-228,c),
(767,-248,o),
(736,-299,o),
(818,-288,c),
(736,-218,l),
(789,-140,l),
(725,-158,o),
(739,-222,o),
(717,-232,c),
(712,-188,o),
(727,-176,o),
(754,-100,cs),
(987,561,l),
(1023,593,o),
(1073,577,o),
(1107,656,cs),
(1145,746,o),
(1137,836,o),
(1210,926,c),
(1162,922,l),
(1164,962,l),
(1102,935,l),
(1219,1026,l),
(1212,1049,l),
(1117,955,l),
(1170,1065,l),
(1134,1075,l),
(1108,955,l),
(1101,1057,l),
(1084,1049,l),
(1101,978,l),
(1060,1007,l),
(1090,955,l),
(1032,988,l),
(1034,981,o),
(1060,973,o),
(1041,908,cs),
(1030,878,o),
(1008,877,o),
(994,907,cs),
(963,975,l),
(973,901,l),
(948,947,l),
(948,903,l),
(927,921,l),
(917,857,o),
(871,813,o),
(876,729,cs),
(882,635,o),
(945,584,o),
(954,545,c),
(905,383,l)
);
},
{
closed = 1;
nodes = (
(841,68,o),
(882,143,o),
(914,176,c),
(892,181,l),
(881,155,o),
(872,137,o),
(859,114,cs),
(845,89,o),
(824,93,o),
(821,96,c),
(816,77,l)
);
}
);
width = 1219;
}
);
},
{
export = 0;
glyphname = _espinillo.chico;
lastChange = "2024-01-29 20:23:13 +0000";
layers = (
{
layerId = m01;
shapes = (
{
closed = 1;
nodes = (
(174,-237,l),
(193,-296,l),
(183,-248,l),
(224,-280,l),
(196,-248,l),
(248,-264,l),
(182,-227,l),
(249,-250,l),
(192,-199,l),
(235,-230,l),
(218,-205,l),
(266,-241,l),
(242,-218,l),
(281,-228,l),
(246,-213,l),
(288,-223,l),
(251,-201,l),
(302,-222,l),
(254,-187,l),
(298,-207,l),
(264,-181,l),
(309,-197,l),
(268,-177,l),
(320,-185,l),
(270,-169,l),
(324,-170,l),
(242,-152,l),
(301,-161,l),
(267,-143,l),
(294,-142,l),
(262,-133,l),
(308,-137,l),
(267,-126,l),
(294,-126,l),
(262,-113,l),
(299,-82,l),
(248,-107,l),
(294,-80,l),
(235,-98,l),
(272,-67,l),
(229,-87,l),
(261,-49,l),
(224,-68,l),
(261,-31,l),
(213,-48,l),
(245,-16,l),
(220,-25,l),
(237,7,l),
(185,-33,l),
(226,18,l),
(176,-27,l),
(212,21,l),
(176,1,l),
(211,61,l),
(157,2,l),
(185,57,l),
(143,-11,l),
(135,50,l),
(130,-19,l),
(115,50,l),
(126,-24,l),
(116,-32,l),
(82,17,l),
(112,-36,l),
(66,4,l),
(82,-30,l),
(25,-7,l),
(81,-44,l),
(0,-37,l),
(52,-58,l),
(17,-65,l),
(52,-76,l),
(21,-80,l),
(55,-88,l),
(24,-92,l),
(58,-96,l),
(22,-106,l),
(56,-115,l),
(6,-129,l),
(55,-126,l),
(7,-145,l),
(57,-142,l),
(20,-160,l),
(55,-155,l),
(17,-186,l),
(57,-182,l),
(32,-210,l),
(62,-193,l),
(33,-227,l),
(65,-209,l),
(35,-242,l),
(61,-226,l),
(46,-252,l),
(84,-214,l),
(68,-256,l),
(79,-244,l),
(75,-260,l),
(93,-230,l),
(85,-267,l),
(104,-230,l),
(99,-274,l),
(113,-237,l),
(110,-280,l),
(120,-238,l),
(125,-286,l),
(132,-233,l),
(145,-284,l),
(154,-236,l),
(155,-296,l),
(163,-243,l),
(173,-298,l)
);
}
);
width = 324;
}
);
},
{
export = 0;
glyphname = _espinillo.mediano;
lastChange = "2024-01-29 20:23:13 +0000";
layers = (
{
layerId = m01;
shapes = (
{
closed = 1;
nodes = (
(173,-322,l),
(199,-370,l),
(187,-327,l),
(213,-340,l),
(200,-301,l),
(226,-349,l),
(217,-311,l),
(231,-314,l),
(209,-286,l),
(253,-321,l),
(231,-295,l),
(283,-323,l),
(229,-265,l),
(244,-273,o),
(276,-293,o),
(273,-290,c),
(232,-246,l),
(284,-262,l),
(243,-241,l),
(293,-242,l),
(257,-229,l),
(314,-235,l),
(260,-216,l),
(319,-219,l),
(279,-210,l),
(340,-212,l),
(261,-190,l),
(346,-177,l),
(290,-174,l),
(311,-164,l),
(280,-156,l),
(351,-140,l),
(285,-132,l),
(334,-123,l),
(281,-105,l),
(336,-94,l),
(311,-89,l),
(349,-55,l),
(305,-62,l),
(340,-43,l),
(295,-47,l),
(339,-21,l),
(306,-20,l),
(336,-3,l),
(297,-5,l),
(344,4,l),
(293,11,l),
(346,13,l),
(275,33,l),
(348,52,l),
(270,47,l),
(333,86,l),
(254,46,l),
(314,114,l),
(244,53,l),
(269,122,l),
(234,44,l),
(229,168,l),
(220,41,l),
(181,111,l),
(207,39,l),
(175,78,l),
(188,39,l),
(159,95,l),
(175,36,l),
(144,81,l),
(160,49,l),
(127,70,l),
(150,48,l),
(101,47,l),
(154,2,l),
(108,32,l),
(160,-34,l),
(119,8,l),
(124,-21,l),
(105,-8,o),
(64,21,o),
(67,18,c),
(114,-33,l),
(98,-24,o),
(60,0,o),
(67,-7,c),
(104,-47,l),
(57,-27,l),
(113,-77,l),
(60,-50,l),
(98,-82,l),
(45,-66,l),
(82,-103,l),
(29,-104,l),
(79,-137,l),
(8,-155,l),
(65,-153,l),
(23,-159,l),
(60,-179,l),
(15,-182,l),
(66,-202,l),
(0,-218,l),
(46,-226,l),
(4,-242,l),
(67,-238,l),
(34,-270,l),
(59,-271,l),
(31,-310,l),
(85,-268,l),
(74,-330,l),
(88,-300,l),
(92,-332,l),
(113,-306,l),
(103,-358,l),
(123,-301,l),
(162,-370,l),
(149,-321,l),
(173,-374,l)
);
}
);
width = 351;
}
);
},
{
export = 0;
glyphname = _frutita.durazno;
lastChange = "2024-01-29 20:23:13 +0000";
layers = (
{
layerId = m01;
shapes = (
{
closed = 1;
nodes = (
(138,9,o),
(238,-6,o),
(294,84,cs),
(350,174,o),
(312,292,o),
(232,288,c),
(224,320,o),
(214,359,o),
(161,332,c),
(59,400,o),
(-40,283,o),
(16,206,c),
(16,173,o),
(23,135,o),
(83,127,c),
(77,84,o),
(92,53,o),
(115,31,cs)
);
}
);
width = 321;
}
);
},
{
export = 0;
glyphname = _hoja.roja;
lastChange = "2024-01-29 20:23:13 +0000";
layers = (
{
background = {
shapes = (
{
closed = 1;
nodes = (
(437,919,o),
(455,936,o),
(422,908,cs),
(392,882,o),
(300,844,o),
(290,827,cs),
(280,810,o),
(285,779,o),
(276,768,cs),
(267,757,o),
(-11,654,o),
(0,410,cs),
(6,274,o),
(36,255,o),
(37,212,cs),
(38,169,o),
(31,88,o),
(132,-65,cs),
(233,-218,o),
(370,-305,o),
(455,-340,c),
(578,-437,o),
(654,-402,o),
(660,-386,c),
(617,-393,o),
(560,-382,o),
(518,-343,cs),
(476,-304,o),
(408,-200,o),
(405,-158,cs),
(399,-83,o),
(441,-55,o),
(447,-22,cs),
(453,11,o),
(422,24,o),
(430,36,cs),
(498,139,o),
(368,175,o),
(356,290,cs),
(353,315,o),
(350,376,o),
(339,410,cs),
(330,440,o),
(308,444,o),
(312,474,cs),
(371,908,o),
(476,958,o),
(599,984,c),
(560,1024,l)
);
}
);
};
layerId = m01;
shapes = (
{
closed = 1;
nodes = (
(587,-320,o),
(536,-310,o),
(498,-275,cs),
(461,-240,o),
(400,-147,o),
(397,-110,cs),
(392,-42,o),
(429,-17,o),
(435,12,cs),
(440,42,o),
(412,54,o),
(420,64,cs),
(481,157,o),
(364,189,o),
(353,292,cs),
(351,314,o),
(348,369,o),
(338,400,cs),
(330,426,o),
(310,430,o),
(314,457,cs),
(367,846,o),
(461,891,o),
(571,914,c),
(536,950,l),
(426,856,o),
(442,871,o),
(412,846,cs),
(386,823,o),
(303,789,o),
(294,773,cs),
(285,758,o),
(290,730,o),
(282,720,cs),
(274,711,o),
(24,618,o),
(34,400,cs),
(40,278,o),
(66,261,o),
(67,222,cs),
(68,184,o),
(62,111,o),
(153,-26,cs),
(243,-163,o),
(366,-241,o),
(442,-273,c),
(552,-360,o),
(620,-328,o),
(626,-314,c)
);
}
);
width = 660;
}
);
},
{
export = 0;
glyphname = _simil.arandano;
lastChange = "2024-01-29 20:23:13 +0000";
layers = (
{
layerId = m01;
shapes = (
{
closed = 1;
nodes = (
(242,92,o),
(268,139,o),
(268,186,cs),
(268,360,o),
(31,297,o),
(57,192,c),
(0,215,o),
(-13,192,o),
(11,164,c),
(27,173,o),
(42,179,o),
(58,173,c),
(49,103,o),
(119,66,o),
(175,78,cs)
);
}
);
width = 268;
}
);
},
{
export = 0;
glyphname = _travesanio.cruzado;
lastChange = "2024-02-05 15:01:44 +0000";
layers = (
{
background = {
shapes = (
{
closed = 1;
nodes = (
(51,430,l),
(93,502,o),
(147,629,o),
(176,646,cs),
(205,663,o),
(326,716,o),
(371,714,c),
(389,697,o),
(452,654,o),
(509,697,cs),
(537,718,o),
(551,738,o),
(570,742,c),
(602,736,l),
(575,750,l),
(609,749,l),
(598,754,l),
(619,762,l),
(595,762,l),
(619,770,l),
(594,769,l),
(623,782,l),
(589,776,l),
(623,791,l),
(587,781,l),
(612,801,l),
(585,790,l),
(598,815,l),
(588,807,o),
(587,795,o),
(568,792,cs),
(502,782,o),
(392,844,o),
(390,733,c),
(408,742,l),
(325,726,o),
(202,665,o),
(165,657,c),
(174,654,l),
(167,667,o),
(193,704,o),
(206,708,cs),
(220,712,o),
(237,714,o),
(244,720,cs),
(251,726,o),
(266,767,o),
(261,771,cs),
(256,775,o),
(210,760,o),
(204,747,c),
(200,718,l),
(134,618,o),
(71,500,o),
(39,462,cs),
(30,451,o),
(17,440,o),
(0,428,c)
);
}
);
};
layerId = m01;
shapes = (
{
closed = 1;
nodes = (
(51,430,l),
(93,502,o),
(147,629,o),
(176,646,cs),
(205,663,o),
(326,716,o),
(371,714,c),
(486,618,o),
(531,749,o),
(570,742,cs),
(602,736,l),
(575,750,l),
(609,749,l),
(598,754,l),
(619,762,l),
(595,762,l),
(619,770,l),
(594,769,l),
(623,782,l),
(589,776,l),
(623,791,l),
(587,781,l),
(612,801,l),
(585,790,l),
(598,815,l),
(588,807,o),
(587,795,o),
(568,792,cs),
(502,782,o),
(392,844,o),
(390,733,c),
(408,742,l),
(325,726,o),
(202,665,o),
(165,657,c),
(174,654,l),
(167,667,o),
(193,704,o),
(206,708,cs),
(220,712,o),
(237,714,o),
(244,720,cs),
(251,726,o),
(266,767,o),
(261,771,cs),
(256,775,o),
(210,760,o),
(204,747,c),
(200,718,l),
(134,618,o),
(71,500,o),
(39,462,cs),
(30,451,o),
(17,440,o),
(0,428,c)
);
}
);
width = 623;
}
);
},
{
export = 0;
glyphname = _baston.alcaucil.largo;
lastChange = "2024-02-05 15:04:47 +0000";
layers = (
{
background = {
shapes = (
{
closed = 1;
nodes = (
(148,-481,o),
(147,-423,o),
(157,-406,c),
(167,-452,o),
(173,-500,o),
(176,-549,c),
(181,-499,o),
(184,-456,o),
(202,-413,c),
(224,-447,o),
(244,-484,o),
(258,-532,c),
(260,-482,o),
(261,-432,o),
(247,-371,c),
(264,-371,o),
(277,-402,o),
(264,-473,c),
(276,-460,o),
(295,-433,o),
(280,-382,c),
(299,-418,o),
(319,-480,o),
(334,-520,c),
(321,-459,o),
(304,-400,o),
(276,-347,c),
(300,-379,o),
(324,-414,o),
(337,-492,c),
(349,-453,o),
(357,-422,o),
(312,-336,cs),
(283,-281,o),
(297,-198,o),
(249,-158,cs),
(216,-130,o),
(192,-135,o),
(187,-77,c),
(168,24,o),
(162,122,o),
(182,211,c),
(149,451,o),
(127,753,o),
(133,932,cs),
(139,1136,o),
(145,1340,o),
(182,1544,c),
(124,1549,o),
(124,1549,o),
(123,1476,cs),
(119,1191,o),
(122,919,o),
(107,671,c),
(129,549,o),
(180,-64,o),
(94,-142,cs),
(50,-182,o),
(55,-173,o),
(44,-179,c),
(15,-193,l),
(50,-186,l),
(11,-246,l),
(44,-213,l),
(7,-308,l),
(24,-296,l),
(18,-345,o),
(-13,-384,o),
(6,-444,c),
(12,-395,o),
(18,-376,o),
(32,-366,cs),
(46,-356,o),
(42,-518,o),
(24,-534,c),
(62,-527,o),
(64,-499,o),
(64,-476,cs),
(64,-453,o),
(73,-392,o),
(86,-392,c),
(106,-442,o),
(110,-499,o),
(106,-560,c),
(135,-551,o),
(118,-468,o),
(131,-441,c),
(134,-494,o),
(143,-532,o),
(152,-567,c)
);
}
);
};
layerId = m01;
shapes = (
{
closed = 1;
nodes = (
(148,-481,o),
(147,-423,o),
(157,-406,c),
(167,-452,o),
(173,-500,o),
(176,-549,c),
(181,-499,o),
(184,-456,o),
(202,-413,c),
(224,-447,o),
(244,-484,o),
(258,-532,c),
(260,-482,o),
(261,-432,o),
(247,-371,c),
(264,-371,o),
(277,-402,o),
(264,-473,c),
(276,-460,o),
(295,-433,o),
(280,-382,c),
(299,-418,o),
(319,-480,o),
(334,-520,c),
(321,-459,o),
(304,-400,o),
(276,-347,c),
(300,-379,o),
(324,-414,o),
(337,-492,c),
(349,-453,o),
(357,-422,o),
(312,-336,cs),
(283,-281,o),
(354,-84,o),
(187,-77,c),
(172,25,o),
(162,122,o),
(182,211,c),
(149,451,o),
(127,753,o),
(133,932,cs),
(139,1136,o),
(145,1340,o),
(182,1544,c),
(119,1544,l),
(130,1465,o),
(117,829,o),
(107,671,c),
(129,549,o),
(184,62,o),
(140,-106,c),
(86,-118,o),
(55,-173,o),
(44,-179,c),
(15,-193,l),
(50,-186,l),
(11,-246,l),
(44,-213,l),
(7,-308,l),
(24,-296,l),
(18,-345,o),
(-13,-384,o),
(6,-444,c),
(12,-395,o),
(18,-376,o),
(32,-366,cs),
(46,-356,o),
(42,-518,o),
(24,-534,c),
(62,-527,o),
(64,-499,o),
(64,-476,cs),
(64,-453,o),
(73,-392,o),
(86,-392,c),
(106,-442,o),
(110,-499,o),
(106,-560,c),
(135,-551,o),
(118,-468,o),
(131,-441,c),
(134,-494,o),
(143,-532,o),
(152,-567,c)
);
}
);
width = 346;
}
);
},
{
export = 0;
glyphname = _baston.con.florcitas;
lastChange = "2024-01-29 20:23:13 +0000";
layers = (
{
layerId = m01;
shapes = (
{
closed = 1;
nodes = (
(78,-219,l),
(81,-31,o),
(88,183,o),
(91,371,c),
(94,584,o),
(83,770,o),
(96,983,cs),
(99,1033,o),
(112,1093,o),
(123,1132,c),
(89,1126,o),
(89,1126,o),
(77,970,c),
(81,374,l),
(71,-224,l)
);
},
{
closed = 1;
nodes = (
(44,-199,o),
(40,-185,o),
(42,-179,cs),
(49,-157,o),
(70,-173,o),
(70,-121,c),
(52,-125,o),
(36,-128,o),
(30,-143,cs),
(24,-158,o),
(33,-176,o),
(9,-183,c),
(18,-198,o),
(29,-202,o),
(44,-199,c)
);
},
{
closed = 1;
nodes = (
(68,-211,o),
(125,-202,o),
(73,-153,c),
(31,-199,o),
(86,-218,o),
(55,-234,c),
(68,-246,o),
(83,-245,o),
(98,-239,c)
);
},
{
closed = 1;
nodes = (
(119,-186,o),
(128,-179,o),
(134,-168,c),
(134,-168,o),
(119,-164,o),
(116,-159,cs),
(113,-154,o),
(116,-119,o),
(83,-116,cs),
(89,-133,o),
(74,-151,o),
(100,-167,cs),
(111,-174,o),
(109,-186,o),
(109,-186,c)
);
},
{
closed = 1;
nodes = (
(33,-66,ls),
(35,-56,o),
(50,-59,o),
(62,-44,cs),
(74,-29,o),
(71,-11,o),
(74,6,c),
(23,5,o),
(26,-46,o),
(25,-55,cs),
(24,-64,o),
(19,-64,o),
(15,-68,c),
(19,-76,o),
(24,-79,o),
(30,-80,c)
);
},
{
closed = 1;
nodes = (
(129,-136,o),
(134,-133,o),
(139,-126,c),
(136,-121,o),
(131,-121,o),
(131,-112,cs),
(131,-103,o),
(139,-52,o),
(88,-46,c),
(90,-63,o),
(85,-81,o),
(95,-97,cs),
(105,-113,o),
(121,-112,o),
(122,-122,cs),
(123,-136,l)
);
},
{
closed = 1;
nodes = (
(129,-55,o),
(141,-50,o),
(148,-36,c),
(125,-29,o),
(133,-10,o),
(126,4,cs),
(120,19,o),
(104,22,o),
(86,24,c),
(87,-28,o),
(108,-11,o),
(116,-32,cs),
(117,-39,o),
(114,-52,o),
(114,-52,c)
);
},
{
closed = 1;
nodes = (
(126,35,o),
(135,42,o),
(141,53,c),
(141,53,o),
(126,57,o),
(123,62,cs),
(120,67,o),
(123,102,o),
(90,105,c),
(86,88,o),
(81,70,o),
(107,54,cs),
(118,47,o),
(116,35,o),
(116,35,c)
);
},
{
closed = 1;
nodes = (
(26,147,o),
(67,106,o),
(77,177,c),
(14,184,o),
(32,128,o),
(0,144,c),
(-2,126,o),
(8,115,o),
(22,106,c)
);
},
{
closed = 1;
nodes = (
(135,170,o),
(141,173,o),
(145,191,c),
(110,187,o),
(154,237,o),
(93,253,c),
(77,183,o),
(130,207,o),
(119,167,c)
);
},
{
closed = 1;
nodes = (
(158,278,o),
(162,282,o),
(165,290,c),
(161,294,o),
(156,293,o),
(154,301,cs),
(151,310,o),
(146,361,o),
(95,354,c),
(101,338,o),
(101,319,o),
(115,307,cs),
(129,294,o),
(144,299,o),
(148,289,cs),
(152,276,l)
);
},
{
closed = 1;
nodes = (
(34,362,o),
(33,374,o),
(45,380,cs),
(72,393,o),
(75,416,o),
(79,447,c),
(46,448,o),
(33,394,o),
(29,389,cs),
(26,385,o),
(11,382,o),
(11,382,c),
(15,371,o),
(24,363,o),
(34,362,c)
);
},
{
closed = 1;
nodes = (
(183,564,o),
(185,571,o),
(175,586,c),
(153,559,o),
(149,625,o),
(94,593,c),
(132,533,o),
(153,587,o),
(173,551,c)
);
},
{
closed = 1;
nodes = (
(173,663,o),
(176,668,o),
(177,676,c),
(172,679,o),
(168,677,o),
(164,684,cs),
(159,693,o),
(144,741,o),
(95,724,c),
(105,710,o),
(108,691,o),
(125,682,cs),
(141,672,o),
(155,680,o),
(161,671,cs),
(167,660,l)
);
}
);
width = 182;
}
);
},
{
export = 0;
glyphname = _diagonal.con.hoja;
lastChange = "2024-02-05 15:00:30 +0000";
layers = (
{
background = {
shapes = (
{
closed = 1;
nodes = (
(390,24,o),
(678,749,o),
(647,1187,c),
(617,1187,l),
(672,846,o),
(415,37,o),
(0,-159,c),
(11,-185,l),
(53,-162,o),
(116,-105,o),
(172,-65,c),
(177,-71,l),
(128,-114,o),
(76,-165,o),
(25,-198,c),
(30,-209,l)
);
},
{
closed = 1;
nodes = (
(764,77,o),
(857,134,o),
(1003,126,c),
(972,157,o),
(951,167,o),
(886,173,cs),
(817,179,o),
(615,126,o),
(534,200,cs),
(448,279,o),
(443,312,o),
(507,464,c),
(435,324,l),
(438,243,o),
(466,125,o),
(615,101,cs)
);
}
);
};
layerId = m01;
shapes = (
{
closed = 1;
nodes = (
(390,24,o),
(678,749,o),
(647,1187,c),
(617,1187,l),
(672,846,o),
(415,37,o),
(0,-159,c),
(11,-185,l),
(53,-162,o),
(116,-105,o),
(172,-65,c),
(177,-71,l),
(128,-114,o),
(76,-165,o),
(25,-198,c),
(30,-209,l)
);
},
{
closed = 1;
nodes = (
(764,19,o),
(857,134,o),
(1003,126,c),
(972,157,o),
(951,167,o),
(886,173,cs),
(817,179,o),
(615,126,o),
(534,200,cs),
(448,279,o),
(443,312,o),
(507,464,c),
(466,397,l),
(443,246,o),
(466,67,o),
(615,43,cs)
);
}
);
width = 1003;
}
);
},
{
export = 0;
glyphname = _flor.roja.grande;
lastChange = "2024-01-29 20:23:13 +0000";
layers = (
{
layerId = m01;
shapes = (
{
closed = 1;
nodes = (
(487,-534,l),
(547,-555,o),
(635,-598,o),
(717,-534,cs),
(763,-498,o),
(810,-431,o),
(811,-417,c),
(799,-365,l),
(823,-326,o),
(858,-261,o),
(872,-249,cs),
(886,-237,o),
(939,-196,o),
(944,-152,c),
(936,247,l),
(879,297,o),
(791,359,o),
(764,398,cs),
(737,437,o),
(712,551,o),
(700,566,cs),
(688,581,o),
(645,610,o),
(630,655,cs),
(615,700,o),
(523,792,o),
(507,789,c),
(445,784,l),
(412,759,o),
(351,720,o),
(346,710,c),
(333,670,l),
(326,674,o),
(313,692,o),
(311,683,cs),
(275,551,o),
(135,438,o),
(118,417,cs),
(102,398,o),
(141,354,o),
(132,317,cs),
(123,282,o),
(32,224,o),
(30,210,cs),
(27,193,o),
(93,186,o),
(93,133,cs),
(93,80,o),
(0,-12,o),
(0,-50,cs),
(0,-78,o),
(81,-42,o),
(64,-116,cs),
(58,-140,o),
(111,-112,o),
(135,-110,c),
(135,-145,o),
(124,-189,o),
(134,-216,cs),
(144,-243,o),
(161,-238,o),
(160,-255,c),
(147,-315,l),
(195,-329,o),
(231,-391,o),
(194,-470,c),
(194,-470,o),
(228,-502,o),
(242,-520,cs),
(253,-534,o),
(247,-587,o),
(305,-568,cs),
(332,-559,o),
(365,-596,o),
(388,-591,c)
);
}
);
width = 944;
}
);
},
{
export = 0;
glyphname = _frutita.durazno.2;
lastChange = "2024-01-29 20:23:13 +0000";
layers = (
{
layerId = m01;
shapes = (
{
closed = 1;
nodes = (
(273,30,o),
(298,117,o),
(254,178,c),
(269,202,o),
(270,222,o),
(251,228,c),
(276,324,o),
(202,321,o),
(162,277,c),
(54,389,o),
(66,285,o),
(76,232,c),
(-24,261,o),
(-30,154,o),
(89,145,c),
(78,51,o),
(181,-13,o),
(227,48,c)
);
}
);
width = 277;
}
);
},
{
export = 0;
glyphname = _frututia.durazno.3;
lastChange = "2024-01-29 20:23:13 +0000";
layers = (
{
layerId = m01;
shapes = (
{
closed = 1;
nodes = (
(263,51,o),
(304,132,o),
(221,208,c),
(244,370,o),
(155,343,o),
(107,263,c),
(58,286,o),
(-57,307,o),
(34,181,c),
(-16,132,o),
(-22,76,o),
(94,89,c),
(124,33,o),
(180,13,o),
(210,62,c)
);
}
);
width = 268;
}
);
},
{
export = 0;
glyphname = _palito.bifurado.corto;
lastChange = "2024-01-29 20:23:13 +0000";
layers = (
{
layerId = m01;
shapes = (
{
closed = 1;
nodes = (
(439,-32,l),
(326,201,l),
(188,449,l),
(190,392,l),
(217,472,o),
(239,507,o),
(265,582,c),
(217,571,l),
(149,367,o),
(216,516,o),
(0,22,c),
(27,18,l),
(53,84,o),
(120,336,o),
(206,404,c),
(196,404,l),
(287,267,o),
(356,116,o),
(417,-43,c)
);
}
);
width = 439;
}
);
},
{
export = 0;
glyphname = _ramo.florcitas.amarillas;
lastChange = "2024-01-29 20:23:13 +0000";
layers = (
{
layerId = m01;
shapes = (
{
closed = 1;
nodes = (
(610,-193,o),
(596,-131,o),
(578,-55,c),
(597,-77,o),
(643,-102,o),
(647,-125,cs),
(662,-217,o),
(662,-217,o),
(642,-236,c),
(709,-208,l),
(688,-204,o),
(668,-197,o),
(664,-171,cs),
(655,-119,l),
(685,-98,o),
(738,-76,o),
(748,-101,c),
(774,-96,l),
(738,-76,o),
(720,-72,o),
(651,-113,c),
(608,-68,l),
(653,-61,o),
(800,-6,o),
(811,-36,c),
(816,29,l),
(753,-48,o),
(615,-59,o),
(588,-34,cs),
(563,-10,o),
(553,42,o),
(547,80,c),
(656,27,l),
(669,55,l),
(630,55,o),
(551,76,o),
(535,136,cs),
(519,196,o),
(507,316,o),
(505,441,cs),
(503,1092,l),
(497,1092,o),
(485,1094,o),
(485,1071,c),
(483,893,o),
(491,652,o),
(491,564,cs),
(491,476,o),
(491,192,o),
(491,169,cs),
(491,99,o),
(384,30,o),
(293,82,cs),
(272,94,o),
(258,105,o),
(254,122,c),
(230,116,l),
(250,99,o),
(299,70,o),
(333,55,c),
(260,52,o),
(173,27,o),
(99,-36,c),
(125,-61,l),
(135,-27,o),
(182,23,o),
(236,34,cs),
(287,44,o),
(372,55,o),
(388,57,cs),
(404,59,o),
(480,67,o),
(503,132,cs),
(526,197,o),
(549,0,o),
(554,-22,cs),
(561,-51,o),
(627,-188,o),
(551,-250,c),
(569,-274,l)
);
},
{
closed = 1;
nodes = (
(188,-425,o),
(329,-428,o),
(350,-351,c),
(333,-234,o),
(149,-254,o),
(155,-357,c)
);
},
{
closed = 1;
nodes = (
(226,-263,o),
(297,-178,o),
(161,-149,c),
(89,-165,o),
(68,-274,o),
(139,-302,c)
);
},
{
closed = 1;
nodes = (
(196,-92,o),
(110,30,o),
(22,-34,c),
(-9,-100,o),
(72,-166,o),
(147,-144,c)
);
},
{
closed = 1;
nodes = (
(461,-240,o),
(413,-178,o),
(326,-198,c),
(278,-248,o),
(353,-363,o),
(439,-311,c)
);
},
{
closed = 1;
nodes = (
(33,-43,o),
(209,-14,o),
(193,103,c),
(77,149,o),
(0,103,o),
(0,33,c)
);
},
{
closed = 1;
nodes = (
(180,-163,o),
(343,-143,o),
(337,-40,c),
(304,28,o),
(184,31,o),
(163,-46,c)
);
},
{
closed = 1;
nodes = (
(619,-231,o),
(570,-187,o),
(455,-226,c),
(452,-324,o),
(528,-400,o),
(604,-361,c)
);
},
{
closed = 1;
nodes = (
(284,-281,l),
(256,-253,o),
(365,-73,o),
(380,-73,cs),
(385,-73,o),
(426,-147,o),
(396,-207,c),
(425,-227,l),
(411,-153,o),
(407,-108,o),
(407,-79,cs),
(407,8,o),
(435,358,o),
(447,429,c),
(431,424,o),
(421,417,o),
(421,403,cs),
(421,271,o),
(403,6,o),
(392,-13,cs),
(345,-94,o),
(264,-194,o),
(197,-200,c),
(221,-224,l),
(276,-190,o),
(309,-142,o),
(356,-77,cs),
(369,-59,o),
(372,-68,o),
(362,-82,cs),
(303,-164,o),
(261,-224,o),
(241,-281,c)
);
},
{
closed = 1;
nodes = (
(154,83,o),
(319,90,o),
(311,207,c),
(279,280,o),
(131,274,o),
(135,178,c)
);
},
{
closed = 1;
nodes = (
(626,-115,o),
(534,-3,o),
(437,-37,c),
(396,-107,o),
(431,-200,o),
(530,-200,c)
);
},
{
closed = 1;
nodes = (
(700,-380,o),
(799,-313,o),
(771,-238,c),
(689,-153,o),
(568,-264,o),
(633,-344,c)
);
},
{
closed = 1;
nodes = (
(701,-221,o),
(808,-225,o),
(827,-159,c),
(823,-132,o),
(797,-90,o),
(757,-92,cs),
(717,-94,o),
(670,-108,o),
(673,-164,c)
);
},
{
closed = 1;
nodes = (
(717,-53,o),
(812,16,o),
(787,80,c),
(716,128,o),
(626,75,o),
(654,-9,c)
);
},
{
closed = 1;
nodes = (
(939,-68,o),
(928,97,o),
(872,113,c),
(766,84,o),
(770,-77,o),
(871,-90,c)
);
}
);
width = 918;
}
);
},
{
export = 0;
glyphname = _tallo.curva.C;
lastChange = "2024-01-29 20:23:13 +0000";
layers = (
{
layerId = m01;
shapes = (
{
closed = 1;
nodes = (
(406,-18,o),
(730,11,o),
(795,0,c),
(834,189,o),
(724,163,o),
(704,153,cs),
(616,107,o),
(378,31,o),
(341,31,cs),
(291,30,o),
(134,99,o),
(103,138,cs),
(72,177,o),
(30,334,o),
(31,362,cs),
(32,390,o),
(105,682,o),
(147,732,cs),
(189,782,o),
(384,881,o),
(439,892,cs),
(475,899,o),
(652,900,o),
(703,893,cs),
(752,886,o),
(837,796,o),
(870,858,c),
(646,957,o),
(327,939,o),
(153,755,cs),
(14,606,o),
(-66,241,o),
(72,119,cs),
(146,52,o),
(273,-18,o),
(326,-18,cs)
);
}
);
width = 870;
}
);
},
{
export = 0;
glyphname = _travesanio.con.bifuracion;
lastChange = "2024-01-29 20:23:13 +0000";
layers = (
{
layerId = m01;
shapes = (
{
closed = 1;
nodes = (
(1254,-212,l),
(1114,-41,l),
(983,180,l),
(868,342,l),
(1060,370,l),
(1046,382,l),
(980,374,o),
(868,358,o),
(848,358,c),
(725,380,l),
(778,453,l),
(919,639,l),
(1099,947,l),
(1336,1243,l),
(1333,1246,l),
(1093,943,l),
(1110,977,o),
(1114,1022,o),
(1125,1061,c),
(1107,1064,l),
(1107,1031,o),
(1102,969,o),
(1077,925,cs),
(976,746,o),
(844,525,o),
(696,381,c),
(549,361,o),
(409,317,o),
(261,317,cs),
(177,317,o),
(81,330,o),
(1,344,c),
(0,332,l),
(261,298,l),
(301,265,ls),
(319,251,o),
(324,284,o),
(315,290,cs),
(276,305,l),
(699,366,l),
(840,339,l),
(967,170,l),
(1110,-47,l),
(1249,-221,l)
);
},
{
closed = 1;
nodes = (
(1182,-134,o),
(1136,-98,o),
(1109,-37,c),
(1104,-28,l),
(1110,-47,l),
(1109,-89,o),
(1038,-149,o),
(1100,-170,c),
(1100,-133,o),
(1104,-95,o),
(1112,-59,c),
(1117,-83,o),
(1098,-214,o),
(1142,-200,c),
(1133,-158,o),
(1118,-99,o),
(1114,-57,c),
(1140,-105,o),
(1127,-240,o),
(1190,-219,c)
);
},
{
closed = 1;
nodes = (
(1116,165,o),
(1047,145,o),
(992,170,cs),
(990,171,o),
(989,173,o),
(993,173,cs),
(1056,173,o),
(1121,136,o),
(1181,159,c),
(1118,218,o),
(1056,176,o),
(993,176,cs),
(990,176,o),
(989,179,o),
(992,179,cs),
(1008,179,o),
(1144,195,o),
(1156,240,c),
(1055,263,o),
(1048,180,o),
(989,180,cs),
(985,180,o),
(983,180,o),
(983,180,c),
(980,173,l),
(1026,150,o),
(1058,91,o),
(1161,91,c)
);
},
{
closed = 1;
nodes = (
(767,437,l),
(808,444,o),
(880,385,o),
(889,450,c),
(853,442,o),
(816,440,o),
(778,441,c),
(802,450,o),
(934,455,o),
(911,496,c),
(871,479,o),
(817,455,o),
(776,444,c),
(818,477,o),
(954,488,o),
(921,547,c),
(840,524,o),
(812,472,o),
(757,435,c),
(749,428,l)
);
},
{
closed = 1;
nodes = (
(1052,634,o),
(983,614,o),
(928,639,cs),
(926,640,o),
(925,642,o),
(929,642,cs),
(992,642,o),
(1057,605,o),
(1117,628,c),
(1054,687,o),
(992,645,o),
(929,645,cs),
(926,645,o),
(925,648,o),
(928,648,cs),
(944,648,o),
(1080,664,o),
(1092,709,c),
(991,732,o),
(984,649,o),
(925,649,cs),
(914,649,o),
(922,651,o),
(916,642,c),
(962,619,o),
(994,560,o),
(1097,560,c)
);
},
{
closed = 1;
nodes = (
(1189,914,o),
(1225,933,o),
(1251,956,c),
(1178,989,o),
(1146,938,o),
(1098,938,cs),
(1096,938,o),
(1096,938,o),
(1097,939,cs),
(1130,972,o),
(1217,962,o),
(1233,1011,c),
(1139,1005,o),
(1101,946,o),
(1097,942,cs),
(1093,938,o),
(1084,937,o),
(1084,938,c),
(1084,935,l),
(1094,934,l)
);
}
);
width = 1336;
}
);
},
{
export = 0;
glyphname = _travesanio.con.hojitas;
lastChange = "2024-01-29 20:23:13 +0000";
layers = (
{
layerId = m01;
shapes = (
{
closed = 1;
nodes = (
(748,836,o),
(871,881,o),
(997,891,cs),
(1206,907,l),
(1198,938,o),
(1158,894,o),
(964,902,c),
(839,876,o),
(718,823,o),
(590,823,cs),
(440,823,o),
(289,825,o),
(139,841,c),
(60,813,o),
(0,852,o),
(0,811,c),
(179,821,ls),
(327,829,o),
(476,813,o),
(624,810,c)
);
},
{
closed = 1;
nodes = (
(221,873,l),
(139,841,l),
(143,826,o),
(170,822,o),
(171,833,cs),
(174,864,o),
(204,862,o),
(220,864,c),
(255,793,o),
(345,821,o),
(407,800,c)
);
},
{
closed = 1;
nodes = (
(511,865,l),
(449,844,o),
(359,872,o),
(324,801,c),
(308,803,o),
(278,801,o),
(275,832,cs),
(274,843,o),
(247,839,o),
(243,824,c),
(325,792,l)
);
},
{
closed = 1;
nodes = (
(711,819,l),
(543,813,l),
(582,771,o),
(635,826,o),
(708,811,c),
(722,733,o),
(816,735,o),
(870,698,c)
);
},
{
closed = 1;
nodes = (
(703,856,l),
(621,824,l),
(625,809,o),
(652,805,o),
(653,816,cs),
(656,847,o),
(686,845,o),
(702,847,c),
(737,776,o),
(827,804,o),
(889,783,c)
);
},
{
closed = 1;
nodes = (
(1232,943,l),
(1170,922,o),
(1080,950,o),
(1045,879,c),
(996,885,o),
(1013,926,o),
(964,902,c),
(1046,870,l)
);
},
{
closed = 1;
nodes = (
(1291,1017,l),
(1237,980,o),
(1143,982,o),
(1129,904,c),
(1056,889,o),
(1003,944,o),
(964,902,c),
(1132,896,l)
);
}
);
width = 1291;
}
);
},
{
export = 0;
glyphname = _baston.con.dos.puntas;
lastChange = "2024-02-05 15:17:56 +0000";
layers = (
{
background = {
shapes = (
{
closed = 1;
nodes = (
(984,-189,l),
(1004,-192,l),
(988,-184,l),
(998,-181,l),
(985,-176,l),
(1006,-176,l),
(985,-170,l),
(1015,-171,l),
(976,-154,l),
(991,-155,o),
(1024,-159,o),
(1020,-158,c),
(990,-137,l),
(1013,-135,l),
(1006,-126,l),
(1018,-118,l),
(992,-108,l),
(1014,-87,l),
(994,-84,o),
(1000,-104,o),
(954,-79,cs),
(908,-54,o),
(870,2,o),
(814,-18,cs),
(758,-38,o),
(745,-58,o),
(688,-33,c),
(611,1,o),
(534,35,o),
(460,77,c),
(461,67,l),
(524,77,o),
(586,80,o),
(649,80,c),
(669,76,o),
(688,58,o),
(709,67,cs),
(730,76,o),
(740,95,o),
(736,106,cs),
(732,117,o),
(698,126,o),
(682,122,cs),
(666,118,o),
(653,96,o),
(632,93,cs),
(568,83,o),
(498,82,o),
(440,86,c),
(475,80,l),
(354,133,o),
(240,191,o),
(129,253,c),
(136,268,l),
(256,321,o),
(413,412,o),
(497,427,cs),
(582,442,o),
(895,500,o),
(931,498,cs),
(966,496,o),
(957,477,o),
(970,461,cs),
(983,445,o),
(1011,407,o),
(1129,435,c),
(1239,455,l),
(1226,462,l),
(1235,466,l),
(1223,469,l),
(1235,473,l),
(1222,479,l),
(1253,495,l),
(1231,496,l),
(1239,501,l),
(1222,502,l),
(1232,508,l),
(1206,508,l),
(1213,513,l),
(1189,520,l),
(1241,526,l),
(1187,526,l),
(1220,533,l),
(1187,538,l),
(1206,539,l),
(1193,544,l),
(1212,553,l),
(1197,556,o),
(1201,548,o),
(1167,561,cs),
(1133,574,o),
(1068,601,o),
(1035,596,cs),
(1002,591,o),
(963,533,o),
(948,525,cs),
(919,509,o),
(817,498,o),
(718,481,cs),
(619,464,o),
(464,447,o),
(447,438,c),
(463,430,l),
(505,502,o),
(559,629,o),
(588,646,cs),
(617,663,o),
(738,716,o),
(783,714,cs),
(802,713,o),
(815,702,o),
(827,690,cs),
(839,678,o),
(893,676,o),
(921,697,cs),
(949,718,o),
(963,738,o),
(982,742,c),
(1014,736,l),
(987,750,l),
(1021,749,l),
(1010,754,l),
(1031,762,l),
(1007,762,l),
(1031,770,l),
(1006,769,l),
(1035,782,l),
(1001,776,l),
(1035,791,l),
(999,781,l),
(1024,801,l),
(997,790,l),
(1010,815,l),
(1000,807,o),
(999,795,o),
(980,792,cs),
(961,789,o),
(902,816,o),
(869,806,cs),
(836,796,o),
(803,779,o),
(802,733,c),
(820,742,l),
(737,726,o),
(614,665,o),
(577,657,c),
(586,654,l),
(579,667,o),
(605,704,o),
(618,708,cs),
(632,712,o),
(649,714,o),
(656,720,cs),
(663,726,o),
(678,767,o),
(673,771,cs),
(668,775,o),
(622,760,o),
(616,747,c),
(612,718,l),
(546,618,o),
(483,500,o),
(451,462,cs),
(378,376,o),
(47,257,o),
(-28,233,c),
(-15,269,l),
(29,192,l),
(-5,205,l),
(42,214,o),
(73,255,o),
(135,231,c),
(350,121,o),
(556,12,o),
(757,-98,c),
(698,-49,l),
(709,-79,o),
(724,-135,o),
(777,-162,cs),
(830,-189,o),
(978,-192,o),
(1003,-220,c)
);
}
);
};
layerId = m01;
shapes = (
{
closed = 1;
nodes = (
(961,-193,l),
(1004,-192,l),
(949,-181,l),
(998,-181,l),
(950,-174,l),
(1006,-176,l),
(954,-159,l),
(1015,-171,l),
(976,-154,l),
(991,-155,o),
(1024,-159,o),
(1020,-158,c),
(990,-137,l),
(1013,-135,l),
(968,-118,l),
(1018,-118,l),
(992,-108,l),
(1043,-86,l),
(1027,-90,o),
(1000,-104,o),
(954,-79,cs),
(861,-28,o),
(829,54,o),
(724,-49,c),
(647,-15,o),
(534,35,o),
(460,77,c),
(461,67,l),
(475,80,l),
(354,133,o),
(240,191,o),
(129,253,c),
(136,268,l),
(256,321,o),
(413,412,o),
(497,427,cs),
(582,442,o),
(868,499,o),
(966,496,c),
(1041,383,o),
(1083,423,o),
(1239,455,c),
(1193,464,l),
(1235,466,l),
(1199,473,l),
(1235,473,l),
(1190,479,l),
(1253,495,l),
(1204,491,l),
(1239,501,l),
(1197,500,l),
(1232,508,l),
(1189,510,l),
(1213,513,l),
(1189,520,l),
(1241,526,l),
(1187,526,l),
(1220,533,l),
(1187,538,l),
(1206,539,l),
(1193,544,l),
(1212,553,l),
(1212,553,o),
(1181,556,o),
(1167,561,cs),
(1069,598,o),
(1009,634,o),
(948,525,c),
(919,509,o),
(817,498,o),
(718,481,cs),
(637,467,o),
(518,453,o),
(469,444,c),
(437,447,l),
(397,418,l),
(276,340,o),
(35,253,o),
(-28,233,c),
(-15,269,l),
(29,192,l),
(-5,205,l),
(42,214,o),
(73,255,o),
(135,231,c),
(350,121,o),
(556,12,o),
(757,-98,c),
(698,-49,l),
(709,-79,o),
(724,-135,o),
(777,-162,cs),
(830,-189,o),
(972,-203,o),
(1003,-220,c)
);
},
{
angle = 58.48074;
pos = (114,223);
ref = _adorno;
scale = (1,-1);
}
);
width = 1253;
}
);
},
{
export = 0;
glyphname = _palito.con.dos.bifurcaciones;
lastChange = "2024-02-05 15:07:06 +0000";
layers = (
{
layerId = m01;
shapes = (
{
closed = 1;
nodes = (
(147,-189,o),
(192,-96,o),
(225,-43,c),
(257,-37,l),
(300,-52,o),
(351,-143,o),
(359,-159,c),
(399,-139,l),
(340,-104,o),
(257,-24,o),
(207,26,c),
(174,95,o),
(177,605,o),
(177,672,c),
(0,640,l),
(61,585,ls),
(179,478,o),
(178,282,o),
(162,49,c),
(177,31,o),
(193,12,o),
(199,0,cs),
(239,-77,o),
(126,-157,o),
(97,-176,c),
(127,-199,l)
);
}
);
width = 399;
}
);
},
{
export = 0;
glyphname = _baston.con.dos.puntas.pinchudas;
lastChange = "2024-01-29 21:03:26 +0000";
layers = (
{
background = {
shapes = (
{
closed = 1;
nodes = (
(503,767,o),
(450,573,o),
(395,425,c),
(209,22,l),
(236,18,l),
(277,121,o),
(330,294,o),
(358,327,c),
(409,395,l),
(493,243,l),
(508,210,o),
(491,199,o),
(537,144,c),
(626,-43,l),
(648,-32,l),
(535,201,l),
(411,425,l),
(485,623,o),
(571,847,o),
(582,973,c),
(534,962,l)
);
},
{
closed = 1;
nodes = (
(592,17,l),
(622,-36,l),
(576,4,l),
(592,-30,l),
(535,-7,l),
(591,-44,l),
(510,-37,l),
(562,-58,l),
(527,-65,l),
(562,-76,l),
(531,-80,l),
(565,-88,l),
(534,-92,l),
(568,-96,l),
(532,-106,l),
(566,-115,l),
(516,-129,l),
(565,-126,l),
(517,-145,l),
(567,-142,l),
(530,-160,l),
(565,-155,l),
(527,-186,l),
(567,-182,l),
(542,-210,l),
(572,-193,l),
(543,-227,l),
(575,-209,l),
(545,-242,l),
(571,-226,l),
(556,-252,l),
(594,-214,l),
(578,-256,l),
(589,-244,l),
(585,-260,l),
(603,-230,l),
(595,-267,l),
(614,-230,l),
(609,-274,l),
(623,-237,l),
(620,-280,l),
(630,-238,l),
(635,-286,l),
(642,-233,l),
(655,-284,l),
(664,-236,l),
(665,-296,l),
(673,-243,l),
(683,-298,l),
(684,-237,l),
(703,-296,l),
(693,-248,l),
(734,-280,l),
(706,-248,l),
(758,-264,l),
(692,-227,l),
(759,-250,l),
(702,-199,l),
(745,-230,l),
(728,-205,l),
(776,-241,l),
(752,-218,l),
(791,-228,l),
(756,-213,l),
(798,-223,l),
(761,-201,l),
(812,-222,l),
(764,-187,l),
(808,-207,l),
(774,-181,l),
(819,-197,l),
(778,-177,l),
(830,-185,l),
(780,-169,l),
(834,-170,l),
(752,-152,l),
(811,-161,l),
(777,-143,l),
(804,-142,l),
(772,-133,l),
(818,-137,l),
(777,-126,l),
(804,-126,l),
(772,-113,l),
(809,-82,l),
(758,-107,l),
(804,-80,l),
(745,-98,l),
(782,-67,l),
(739,-87,l),
(771,-49,l),
(734,-68,l),
(771,-31,l),
(723,-48,l),
(755,-16,l),
(730,-25,l),
(747,7,l),
(695,-33,l),
(736,18,l),
(686,-27,l),
(722,21,l),
(686,1,l),
(721,61,l),
(667,2,l),
(695,57,l),
(653,-11,l),
(645,50,l),
(640,-19,l),
(625,50,l),
(636,-24,l),
(626,-32,l)
);
},
{
closed = 1;
nodes = (
(229,168,l),
(220,41,l),
(181,111,l),
(207,39,l),
(175,78,l),
(188,39,l),
(159,95,l),
(175,36,l),
(144,81,l),
(160,49,l),
(127,70,l),
(150,48,l),
(101,47,l),
(154,2,l),
(108,32,l),
(160,-34,l),
(119,8,l),
(124,-21,l),
(105,-8,o),
(64,21,o),
(67,18,c),
(114,-33,l),
(98,-24,o),
(60,0,o),
(67,-7,c),
(104,-47,l),
(57,-27,l),
(113,-77,l),
(60,-50,l),
(98,-82,l),
(45,-66,l),
(82,-103,l),
(29,-104,l),
(79,-137,l),
(8,-155,l),
(65,-153,l),
(23,-159,l),
(60,-179,l),
(15,-182,l),
(66,-202,l),
(0,-218,l),
(46,-226,l),
(4,-242,l),
(67,-238,l),
(34,-270,l),
(59,-271,l),
(31,-310,l),
(85,-268,l),
(74,-330,l),
(88,-300,l),
(92,-332,l),
(113,-306,l),
(103,-358,l),
(123,-301,l),
(162,-370,l),
(149,-321,l),
(173,-374,l),
(173,-322,l),
(199,-370,l),
(187,-327,l),
(213,-340,l),
(200,-301,l),
(226,-349,l),
(217,-311,l),
(231,-314,l),
(209,-286,l),
(253,-321,l),
(231,-295,l),
(283,-323,l),
(229,-265,l),
(244,-273,o),
(276,-293,o),
(273,-290,c),
(232,-246,l),
(284,-262,l),
(243,-241,l),
(293,-242,l),
(257,-229,l),
(314,-235,l),
(260,-216,l),
(319,-219,l),
(279,-210,l),
(340,-212,l),
(261,-190,l),
(346,-177,l),
(290,-174,l),
(311,-164,l),
(280,-156,l),
(351,-140,l),
(285,-132,l),
(334,-123,l),
(281,-105,l),
(336,-94,l),
(311,-89,l),
(349,-55,l),
(305,-62,l),
(340,-43,l),
(295,-47,l),
(339,-21,l),
(306,-20,l),
(336,-3,l),
(297,-5,l),
(344,4,l),
(293,11,l),
(346,13,l),
(275,33,l),
(348,52,l),
(270,47,l),
(333,86,l),
(254,46,l),
(314,114,l),
(244,53,l),
(269,122,l),
(234,44,l)
);
}
